<svg id="Layer_1" data-name="Layer 1" xmlns="http://www.w3.org/2000/svg" xmlns:xlink="http://www.w3.org/1999/xlink" viewBox="0 0 492.55 127.91"><defs><style>.cls-1{fill:#070707;}.cls-2{fill:url(#linear-gradient);}</style><linearGradient id="linear-gradient" x1="3.72" y1="70.04" x2="104.08" y2="70.04" gradientUnits="userSpaceOnUse"><stop offset="0" stop-color="#595993"/><stop offset="0.47" stop-color="#393366"/><stop offset="1" stop-color="#070707"/></linearGradient></defs><path class="cls-1" d="M293.89,68.15V6.09H135.68V133.92l360.59.08V68.15ZM139.51,10H290V68.15H139.51ZM492.44,130.11H139.51V72H290v41h4.47V96.51l8.3,13.63h2.09l8.29-13.85,0,16.74h4.43l0-25.25h-3.86l-9.85,16.73-10-16.73V72H492.44Z" transform="translate(-3.72 -6.09)"/><path class="cls-1" d="M162.17,29.89a9.42,9.42,0,0,1,4.65-1.13,8.85,8.85,0,0,1,6.75,2.95l3-2.85a11.65,11.65,0,0,0-4.33-3.14,14.45,14.45,0,0,0-5.66-1.08,14.22,14.22,0,0,0-6.91,1.68A12.44,12.44,0,0,0,154.85,31a12.72,12.72,0,0,0-1.77,6.67,12.82,12.82,0,0,0,1.75,6.67,12.36,12.36,0,0,0,4.83,4.63,14.22,14.22,0,0,0,6.91,1.68,14.56,14.56,0,0,0,5.68-1.08,11.54,11.54,0,0,0,4.35-3.14l-3-2.88a8.82,8.82,0,0,1-6.75,3,9.42,9.42,0,0,1-4.65-1.14A8.17,8.17,0,0,1,159,42.21a9.7,9.7,0,0,1,0-9.16A8.2,8.2,0,0,1,162.17,29.89Z" transform="translate(-3.72 -6.09)"/><polygon class="cls-1" points="201.61 33.27 213.8 33.27 213.8 29.41 201.61 29.41 201.61 22.85 215.35 22.85 215.35 18.92 196.92 18.92 196.92 44.16 215.85 44.16 215.85 40.23 201.61 40.23 201.61 33.27"/><path class="cls-1" d="M261.84,26.57A16,16,0,0,0,254.66,25h-11V50.25h11a15.83,15.83,0,0,0,7.18-1.57,11.62,11.62,0,0,0,4.87-4.43,12.62,12.62,0,0,0,1.73-6.62A12.59,12.59,0,0,0,266.71,31,11.71,11.71,0,0,0,261.84,26.57Zm.74,15.62a7.63,7.63,0,0,1-3.25,3,10.73,10.73,0,0,1-4.89,1.06h-6.13V29h6.13A10.73,10.73,0,0,1,259.33,30a7.63,7.63,0,0,1,3.25,3,9.77,9.77,0,0,1,0,9.12Z" transform="translate(-3.72 -6.09)"/><path class="cls-1" d="M162.17,92.67a9.42,9.42,0,0,1,4.65-1.14,8.86,8.86,0,0,1,6.75,3l3-2.85a11.55,11.55,0,0,0-4.33-3.14,14.45,14.45,0,0,0-5.66-1.08,14.22,14.22,0,0,0-6.91,1.68,12.49,12.49,0,0,0-4.85,4.63,13.54,13.54,0,0,0,0,13.35,12.43,12.43,0,0,0,4.83,4.63,14.22,14.22,0,0,0,6.91,1.68,14.38,14.38,0,0,0,5.68-1.09,11.51,11.51,0,0,0,4.35-3.13l-3-2.89a8.79,8.79,0,0,1-6.75,3,9.42,9.42,0,0,1-4.65-1.14A8.2,8.2,0,0,1,159,105a9.7,9.7,0,0,1,0-9.16A8.17,8.17,0,0,1,162.17,92.67Z" transform="translate(-3.72 -6.09)"/><path class="cls-1" d="M216.69,89.1a15.26,15.26,0,0,0-13.92,0,12.38,12.38,0,0,0-4.87,4.65,13.4,13.4,0,0,0,0,13.31,12.45,12.45,0,0,0,4.87,4.65,15.26,15.26,0,0,0,13.92,0,12.47,12.47,0,0,0,4.87-4.63,13.47,13.47,0,0,0,0-13.35A12.47,12.47,0,0,0,216.69,89.1Zm.76,15.87a8.32,8.32,0,0,1-3.17,3.17,9.63,9.63,0,0,1-9.09,0A8.28,8.28,0,0,1,202,105a9.64,9.64,0,0,1,0-9.13,8.14,8.14,0,0,1,3.18-3.17,9.63,9.63,0,0,1,9.09,0,8.19,8.19,0,0,1,3.17,3.17,9.64,9.64,0,0,1,0,9.13Z" transform="translate(-3.72 -6.09)"/><polygon class="cls-1" points="262.87 81.69 253.03 98.43 243 81.69 239.14 81.69 239.14 106.94 243.61 106.94 243.61 90.42 251.91 104.05 254 104.05 262.3 90.2 262.33 106.94 266.77 106.94 266.73 81.69 262.87 81.69"/><polygon class="cls-1" points="352.4 103.01 338.15 103.01 338.15 96.05 350.35 96.05 350.35 92.19 338.15 92.19 338.15 85.63 351.89 85.63 351.89 81.69 333.47 81.69 333.47 106.94 352.4 106.94 352.4 103.01"/><path class="cls-1" d="M380.35,105.67h5.7a7.83,7.83,0,0,0,1,0l5.16,7.4h5.05l-5.81-8.3a8.27,8.27,0,0,0,4-3.06,8.61,8.61,0,0,0,1.39-4.91,8.75,8.75,0,0,0-1.3-4.8,8.35,8.35,0,0,0-3.74-3.1,14,14,0,0,0-5.71-1.08H375.66V113h4.69Zm0-13.92h5.48a7.19,7.19,0,0,1,4.66,1.3,4.53,4.53,0,0,1,1.58,3.71,4.58,4.58,0,0,1-1.58,3.73,7.13,7.13,0,0,1-4.66,1.32h-5.48Z" transform="translate(-3.72 -6.09)"/><path class="cls-1" d="M423.35,111.71a15.16,15.16,0,0,0,12.58.59,11.51,11.51,0,0,0,4.35-3.13l-3-2.89a8.77,8.77,0,0,1-6.74,3,9.46,9.46,0,0,1-4.66-1.14,8.2,8.2,0,0,1-3.21-3.16,9.7,9.7,0,0,1,0-9.16,8.17,8.17,0,0,1,3.21-3.15,9.46,9.46,0,0,1,4.66-1.14,8.84,8.84,0,0,1,6.74,3l3-2.85A11.55,11.55,0,0,0,436,88.5a14.38,14.38,0,0,0-5.66-1.08,14.22,14.22,0,0,0-6.91,1.68,12.56,12.56,0,0,0-4.85,4.63,13.57,13.57,0,0,0,0,13.35A12.3,12.3,0,0,0,423.35,111.71Z" transform="translate(-3.72 -6.09)"/><polygon class="cls-1" points="475.03 103.01 460.78 103.01 460.78 96.05 472.97 96.05 472.97 92.19 460.78 92.19 460.78 85.63 474.52 85.63 474.52 81.69 456.09 81.69 456.09 106.94 475.03 106.94 475.03 103.01"/><path class="cls-2" d="M74.77,67.94l27.48-27.47L68,6.18,26.46,47.59,3.72,70.21l63.7,63.69,36.66-36.66ZM17.64,70.23,68,20.07l20.39,20.4L67.83,61l-8-8-7,7,8,8L43.2,85.62l6.95,6.95L67.83,74.89,90.18,97.24,67.42,120Z" transform="translate(-3.72 -6.09)"/></svg>